<svg xmlns="http://www.w3.org/2000/svg" viewBox="5.38123 0.000374556 18.62 38.52">
  <path stroke="#757575" d="M 11.922 20.398 l 6.033 -7.946 C 19.584 9.996 20 8.992 20 7.926 c 0 -1.07 -0.416 -2.074 -1.172 -2.828 c -1.559 -1.559 -4.096 -1.562 -5.654 0 C 12.416 5.852 12 6.855 12 7.926 H 8 c 0 -2.137 0.834 -4.148 2.348 -5.66 c 3.02 -3.023 8.285 -3.02 11.309 0.004 C 23.168 3.777 24 5.785 24 7.926 c 0 2.137 -0.832 4.145 -2.344 5.656 l -5.224 6.967 C 25.95 22.017 27.471 37.174 14.864 38.519 C 2.798 38.008 2.749 22.949 11.873 20.398 M 14.188 23.007 A 1 1 0 0 0 14.986 35.718 A 1 1 0 0 0 14.187 23.006 z" fill="#000000"/>
</svg>
